# xmcd
#
# Track frame offsets:
#	150
#	15198
#	26625
#	47710
#	74648
#	95324
#	119962
#	137541
#	151170
#	170271
#	179816
#	205660
#	228166
#	251720
#	275517
#
# Disc length: 3927 seconds
#
# Revision: 1
# Processed by: cddbd v1.5.2PL0 Copyright (c) Steve Scherf et al.
# Submitted via: audiograbber 1.83.01
#
DISCID=ce0f550f
DTITLE=Cajun Roosters - double shot
DYEAR=2008
DGENRE=
TTITLE0=La Danse de Limonade
TTITLE1=Madame Faielle
TTITLE2=Eunice Two-Step
TTITLE3=Double Shot
TTITLE4=Hadacol Boogie
TTITLE5=Rooster Blues
TTITLE6=Chère Joues Roses
TTITLE7=La Porte Du Nord
TTITLE8=Jean Lafitte
TTITLE9=Fiddle Sticks
TTITLE10=Wild Side of Life
TTITLE11=Route 66
TTITLE12=Port Arthur Blues
TTITLE13=Barres de la Prison
TTITLE14=Two-Step de Rogeau
EXTD=
EXTT0=
EXTT1=
EXTT2=
EXTT3=
EXTT4=
EXTT5=
EXTT6=
EXTT7=
EXTT8=
EXTT9=
EXTT10=
EXTT11=
EXTT12=
EXTT13=
EXTT14=
PLAYORDER=
